<svg xmlns="http://www.w3.org/2000/svg" width="50" height="50" viewBox="0 0 50 50"><rect width="50" height="50" rx="10" fill="#1E3A8A"/><path d="M433.0 335.0Q480 382 480.0 448.0Q480 514 433.0 561.0Q386 608 320.0 608.0Q254 608 207.0 561.0Q160 514 160.0 448.0Q160 382 207.0 335.0Q254 288 320.0 288.0Q386 288 433.0 335.0ZM516 768H1532L1443 1125Q1441 1133 1429.0 1142.5Q1417 1152 1408 1152H640Q631 1152 619.0 1142.5Q607 1133 605 1125ZM1841.0 335.0Q1888 382 1888.0 448.0Q1888 514 1841.0 561.0Q1794 608 1728.0 608.0Q1662 608 1615.0 561.0Q1568 514 1568.0 448.0Q1568 382 1615.0 335.0Q1662 288 1728.0 288.0Q1794 288 1841.0 335.0ZM2048 544V160Q2048 146 2039.0 137.0Q2030 128 2016 128H1920V0Q1920 -80 1864.0 -136.0Q1808 -192 1728.0 -192.0Q1648 -192 1592.0 -136.0Q1536 -80 1536 0V128H512V0Q512 -80 456.0 -136.0Q400 -192 320.0 -192.0Q240 -192 184.0 -136.0Q128 -80 128 0V128H32Q18 128 9.0 137.0Q0 146 0 160V544Q0 637 65.5 702.5Q131 768 224 768H252L357 1187Q380 1281 461.0 1344.5Q542 1408 640 1408H1408Q1506 1408 1587.0 1344.5Q1668 1281 1691 1187L1796 768H1824Q1917 768 1982.5 702.5Q2048 637 2048 544Z" fill="#FFFFFF" transform="translate(25 25) scale(0.012695 -0.012695) translate(-1024 -608)"/></svg>
