<svg xmlns="http://www.w3.org/2000/svg" width="50" height="50" viewBox="0 0 50 50"><defs><clipPath id="afenda-accent-dc57cf43e1-accent"><circle cx="15" cy="35" r="17"/></clipPath><clipPath id="afenda-accent-dc57cf43e1-band"><polygon points="84.397,-28.7401 -28.7401,84.397 -37.2254,75.9117 75.9117,-37.2254"/></clipPath></defs><path d="M440.5 71.5Q464 95 464.0 128.0Q464 161 440.5 184.5Q417 208 384.0 208.0Q351 208 327.5 184.5Q304 161 304.0 128.0Q304 95 327.5 71.5Q351 48 384.0 48.0Q417 48 440.5 71.5ZM672 288V992Q672 1005 662.5 1014.5Q653 1024 640 1024H128Q115 1024 105.5 1014.5Q96 1005 96 992V288Q96 275 105.5 265.5Q115 256 128 256H640Q653 256 662.5 265.5Q672 275 672 288ZM464 1152H304Q288 1152 288.0 1136.0Q288 1120 304 1120H464Q480 1120 480.0 1136.0Q480 1152 464 1152ZM768 1152V128Q768 76 730.0 38.0Q692 0 640 0H128Q76 0 38.0 38.0Q0 76 0 128V1152Q0 1204 38.0 1242.0Q76 1280 128 1280H640Q692 1280 730.0 1242.0Q768 1204 768 1152Z" fill="#3448A8" transform="translate(25 25) scale(0.032813 -0.032813) translate(-384 -640)"/><g clip-path="url(#afenda-accent-dc57cf43e1-accent)"><path d="M440.5 71.5Q464 95 464.0 128.0Q464 161 440.5 184.5Q417 208 384.0 208.0Q351 208 327.5 184.5Q304 161 304.0 128.0Q304 95 327.5 71.5Q351 48 384.0 48.0Q417 48 440.5 71.5ZM672 288V992Q672 1005 662.5 1014.5Q653 1024 640 1024H128Q115 1024 105.5 1014.5Q96 1005 96 992V288Q96 275 105.5 265.5Q115 256 128 256H640Q653 256 662.5 265.5Q672 275 672 288ZM464 1152H304Q288 1152 288.0 1136.0Q288 1120 304 1120H464Q480 1120 480.0 1136.0Q480 1152 464 1152ZM768 1152V128Q768 76 730.0 38.0Q692 0 640 0H128Q76 0 38.0 38.0Q0 76 0 128V1152Q0 1204 38.0 1242.0Q76 1280 128 1280H640Q692 1280 730.0 1242.0Q768 1204 768 1152Z" fill="#A8447A" transform="translate(25 25) scale(0.032813 -0.032813) translate(-384 -640)"/></g><g clip-path="url(#afenda-accent-dc57cf43e1-accent)"><g clip-path="url(#afenda-accent-dc57cf43e1-band)"><path d="M440.5 71.5Q464 95 464.0 128.0Q464 161 440.5 184.5Q417 208 384.0 208.0Q351 208 327.5 184.5Q304 161 304.0 128.0Q304 95 327.5 71.5Q351 48 384.0 48.0Q417 48 440.5 71.5ZM672 288V992Q672 1005 662.5 1014.5Q653 1024 640 1024H128Q115 1024 105.5 1014.5Q96 1005 96 992V288Q96 275 105.5 265.5Q115 256 128 256H640Q653 256 662.5 265.5Q672 275 672 288ZM464 1152H304Q288 1152 288.0 1136.0Q288 1120 304 1120H464Q480 1120 480.0 1136.0Q480 1152 464 1152ZM768 1152V128Q768 76 730.0 38.0Q692 0 640 0H128Q76 0 38.0 38.0Q0 76 0 128V1152Q0 1204 38.0 1242.0Q76 1280 128 1280H640Q692 1280 730.0 1242.0Q768 1204 768 1152Z" fill="#4D3075" transform="translate(25 25) scale(0.032813 -0.032813) translate(-384 -640)"/></g></g></svg>
